<svg id="Layer_1" data-name="Layer 1" xmlns="http://www.w3.org/2000/svg" viewBox="0 0 219.67 61.15"><path d="M36,60.24a5.48,5.48,0,0,1-1.76,4.39,6.22,6.22,0,0,1-4.22,1.51,6.12,6.12,0,0,1-4.14-1.51,5.48,5.48,0,0,1-1.76-4.39V29.8q0-3.45,1.22-5t4.47-1.56a8.86,8.86,0,0,1,4.5.93,10.67,10.67,0,0,1,2.84,2.6l7.85,10,7.78-10.08a10.21,10.21,0,0,1,2.77-2.51,7.9,7.9,0,0,1,4.07-.94c2.16,0,3.67.51,4.53,1.55s1.3,2.7,1.3,5V60.24a5.44,5.44,0,0,1-1.77,4.39,6.25,6.25,0,0,1-4.21,1.51,6.12,6.12,0,0,1-4.14-1.51,5.48,5.48,0,0,1-1.76-4.39V42.11l-5.33,7.06a4.75,4.75,0,0,1-3.6,2.16,4.42,4.42,0,0,1-3.53-2.23L36,42.1Z" transform="translate(-24.15 -23.15)"/><path d="M90.9,26.24a6.67,6.67,0,0,1,2.2-2.34,5.23,5.23,0,0,1,2.7-.75,5.54,5.54,0,0,1,2.3.5,8.34,8.34,0,0,1,2.06,1.3,6,6,0,0,1,1.44,1.87,5,5,0,0,1,.54,2.23,6.15,6.15,0,0,1-1,3.17L91.62,47.58V60.33a5.46,5.46,0,0,1-1.76,4.39,6.18,6.18,0,0,1-4.14,1.52,6.25,6.25,0,0,1-4.21-1.51,5.44,5.44,0,0,1-1.77-4.39V47.58L70.17,32.24a6.06,6.06,0,0,1-1-3.17,5,5,0,0,1,.54-2.23A6,6,0,0,1,71.15,25a7.83,7.83,0,0,1,2-1.3,5.58,5.58,0,0,1,2.31-.5,5.23,5.23,0,0,1,2.7.75,6.73,6.73,0,0,1,2.18,2.32l5.26,9Z" transform="translate(-24.15 -23.15)"/><path d="M123.58,53.24a11.15,11.15,0,0,0-4.35.79,9.21,9.21,0,0,0-3.1,2.21,8.67,8.67,0,0,0-1.87,3,10.14,10.14,0,0,0-.61,3.49,10.49,10.49,0,0,0,.61,3.51,8.63,8.63,0,0,0,1.87,3.06,9.57,9.57,0,0,0,3.1,2.16,10.31,10.31,0,0,0,4.28.83h4.39a6.41,6.41,0,0,1,2.63.5,5.62,5.62,0,0,1,1.87,1.37,5.49,5.49,0,0,1,1.12,2,6.66,6.66,0,0,1,.36,2.16,6.4,6.4,0,0,1-1.51,4.14,5.49,5.49,0,0,1-4.47,1.78h-4.32a22.44,22.44,0,0,1-9.36-1.83,20.4,20.4,0,0,1-6.73-4.79,19.43,19.43,0,0,1-4-6.77A23.69,23.69,0,0,1,103.56,55a21.31,21.31,0,0,1,4.18-7,20,20,0,0,1,7-5,24,24,0,0,1,9.83-1.87H128a6.41,6.41,0,0,1,2.63.5A5.49,5.49,0,0,1,132.45,43a6,6,0,0,1,1.15,1.94,6.48,6.48,0,0,1,0,4.47,6.15,6.15,0,0,1-1.15,1.94,5.49,5.49,0,0,1-1.87,1.37,6.41,6.41,0,0,1-2.63.5Z" transform="translate(-24.15 -23.15)"/><path d="M172.18,78.24a5.48,5.48,0,0,1-1.76,4.39,6.25,6.25,0,0,1-4.21,1.51,6.1,6.1,0,0,1-4.14-1.51,5.44,5.44,0,0,1-1.77-4.39V68.68h-9.65v9.56a5.46,5.46,0,0,1-1.76,4.39,6.25,6.25,0,0,1-4.21,1.51,6.1,6.1,0,0,1-4.14-1.51,5.44,5.44,0,0,1-1.77-4.39V47.15a5.44,5.44,0,0,1,1.77-4.39,6.16,6.16,0,0,1,4.14-1.52,6.3,6.3,0,0,1,4.21,1.51,5.48,5.48,0,0,1,1.76,4.39v9.58h9.65V47.15a5.44,5.44,0,0,1,1.77-4.39,6.16,6.16,0,0,1,4.14-1.52,6.3,6.3,0,0,1,4.21,1.51,5.48,5.48,0,0,1,1.76,4.39Z" transform="translate(-24.15 -23.15)"/><path d="M202.06,75.88H189.32l-1.8,4.61a5.85,5.85,0,0,1-2.2,2.91,5.45,5.45,0,0,1-3.06.9,7.14,7.14,0,0,1-2.34-.39,7.26,7.26,0,0,1-2-1.15A5.74,5.74,0,0,1,176.39,81a4.72,4.72,0,0,1-.54-2.3,5.45,5.45,0,0,1,.51-2.38L190.54,45a6.88,6.88,0,0,1,2.52-3,6,6,0,0,1,3.24-1,5.82,5.82,0,0,1,3.2,1,6.09,6.09,0,0,1,2.34,3l13,31.32a5.59,5.59,0,0,1,.5,2.38A4.84,4.84,0,0,1,214.8,81a5.68,5.68,0,0,1-1.47,1.8,7,7,0,0,1-4.4,1.54,5.63,5.63,0,0,1-3.09-.9,5.44,5.44,0,0,1-2.16-2.91Zm-9-9.36h5.76l-2.66-7.7Z" transform="translate(-24.15 -23.15)"/><path d="M233.81,78.24a5.48,5.48,0,0,1-1.76,4.39,6.25,6.25,0,0,1-4.21,1.51,6.1,6.1,0,0,1-4.14-1.51,5.44,5.44,0,0,1-1.77-4.39V53.13h-4.17a5.6,5.6,0,0,1-4.4-1.77,6.39,6.39,0,0,1,0-8.42,5.6,5.6,0,0,1,4.4-1.76h20.08a5.61,5.61,0,0,1,4.4,1.76,6.39,6.39,0,0,1,0,8.42,5.6,5.6,0,0,1-4.4,1.77h-4Z" transform="translate(-24.15 -23.15)"/></svg>